<svg xmlns="http://www.w3.org/2000/svg" version="1.1" xmlns:xlink="http://www.w3.org/1999/xlink" xmlns:svgjs="http://svgjs.dev/svgjs" width="1440" height="560" preserveAspectRatio="none" viewBox="0 0 1440 560"><g mask="url(&quot;#SvgjsMask1091&quot;)" fill="none"><path d="M1536 560L0 560 L0 522.31Q5.29 455.6, 72 460.89Q125 393.89, 192 446.89Q254.11 437, 264 499.11Q316.16 479.27, 336 531.43Q349.25 472.68, 408 485.94Q444.91 402.85, 528 439.76Q602.98 394.74, 648 469.71Q723.8 473.51, 720 549.31Q785.26 494.57, 840 559.83Q859.66 507.5, 912 527.16Q963.69 458.85, 1032 510.53Q1054.3 460.82, 1104 483.12Q1125.57 432.69, 1176 454.26Q1267.49 425.75, 1296 517.24Q1342.05 443.29, 1416 489.34Q1451.52 404.86, 1536 440.37z" fill="rgba(37, 76, 125, 1)"></path></g><defs><mask id="SvgjsMask1091"><rect width="1440" height="560" fill="#ffffff"></rect></mask></defs></svg>