<svg xmlns="http://www.w3.org/2000/svg" version="1.1" xmlns:xlink="http://www.w3.org/1999/xlink" xmlns:svgjs="http://svgjs.dev/svgjs" width="1440" height="120" preserveAspectRatio="none" viewBox="0 0 1440 120"><g mask="url(&quot;#SvgjsMask1023&quot;)" fill="none"><path d="M 0,92 C 20.6,76.2 61.8,9.8 103,13 C 144.2,16.2 164.8,107.2 206,108 C 247.2,108.8 267.8,22.4 309,17 C 350.2,11.6 370.8,74.2 412,81 C 453.2,87.8 473.8,51.6 515,51 C 556.2,50.4 576.8,84.4 618,78 C 659.2,71.6 679.8,22.2 721,19 C 762.2,15.8 782.8,61.4 824,62 C 865.2,62.6 885.8,13 927,22 C 968.2,31 988.8,110 1030,107 C 1071.2,104 1091.8,10.2 1133,7 C 1174.2,3.8 1194.8,84 1236,91 C 1277.2,98 1298.2,37.4 1339,42 C 1379.8,46.6 1419.8,99.6 1440,114L1440 120L0 120z" fill="rgba(13, 42, 78, 1)"></path></g><defs><mask id="SvgjsMask1023"><rect width="1440" height="120" fill="#ffffff"></rect></mask></defs></svg>